<svg width="75" height="10" viewBox="0 0 75 10" fill="none" xmlns="http://www.w3.org/2000/svg">
<path d="M0.0568182 9V0.272727H5.32386V1.21023H1.11364V4.15909H5.05114V5.09659H1.11364V8.0625H5.39205V9H0.0568182ZM8.09801 5.0625V9H7.09233V2.45455H8.06392V3.47727H8.14915C8.30256 3.14489 8.53551 2.87784 8.84801 2.67614C9.16051 2.47159 9.56392 2.36932 10.0582 2.36932C10.5014 2.36932 10.8892 2.46023 11.2216 2.64205C11.554 2.82102 11.8125 3.09375 11.9972 3.46023C12.1818 3.82386 12.2741 4.28409 12.2741 4.84091V9H11.2685V4.90909C11.2685 4.39489 11.1349 3.99432 10.8679 3.70739C10.6009 3.41761 10.2344 3.27273 9.76847 3.27273C9.44744 3.27273 9.16051 3.34233 8.90767 3.48153C8.65767 3.62074 8.46023 3.82386 8.31534 4.09091C8.17045 4.35795 8.09801 4.68182 8.09801 5.0625ZM16.9585 2.45455V3.30682H13.5664V2.45455H16.9585ZM14.555 0.886364H15.5607V7.125C15.5607 7.40909 15.6019 7.62216 15.6843 7.7642C15.7695 7.90341 15.8775 7.99716 16.0082 8.04545C16.1417 8.09091 16.2823 8.11364 16.43 8.11364C16.5408 8.11364 16.6317 8.10795 16.7028 8.09659C16.7738 8.08239 16.8306 8.07102 16.8732 8.0625L17.0778 8.96591C17.0096 8.99148 16.9144 9.01705 16.7923 9.04261C16.6701 9.07102 16.5153 9.08523 16.3278 9.08523C16.0437 9.08523 15.7653 9.02415 15.4925 8.90199C15.2227 8.77983 14.9982 8.59375 14.8192 8.34375C14.6431 8.09375 14.555 7.77841 14.555 7.39773V0.886364ZM21.1452 9.13636C20.5146 9.13636 19.9705 8.99716 19.5131 8.71875C19.0586 8.4375 18.7077 8.04545 18.4606 7.54261C18.2163 7.03693 18.0941 6.44886 18.0941 5.77841C18.0941 5.10795 18.2163 4.51705 18.4606 4.00568C18.7077 3.49148 19.0515 3.09091 19.4918 2.80398C19.935 2.5142 20.4521 2.36932 21.043 2.36932C21.3839 2.36932 21.7205 2.42614 22.0529 2.53977C22.3853 2.65341 22.6879 2.83807 22.9606 3.09375C23.2333 3.34659 23.4506 3.68182 23.6126 4.09943C23.7745 4.51705 23.8555 5.03125 23.8555 5.64205V6.06818H18.81V5.19886H22.8327C22.8327 4.82955 22.7589 4.5 22.6112 4.21023C22.4663 3.92045 22.2589 3.69176 21.989 3.52415C21.7219 3.35653 21.4066 3.27273 21.043 3.27273C20.6424 3.27273 20.2958 3.37216 20.0032 3.57102C19.7134 3.76705 19.4904 4.02273 19.3342 4.33807C19.1779 4.65341 19.0998 4.99148 19.0998 5.35227V5.93182C19.0998 6.42614 19.185 6.84517 19.3555 7.18892C19.5288 7.52983 19.7688 7.78977 20.0756 7.96875C20.3825 8.14489 20.739 8.23295 21.1452 8.23295C21.4094 8.23295 21.6481 8.19602 21.8612 8.12216C22.0771 8.04545 22.2631 7.93182 22.4194 7.78125C22.5756 7.62784 22.6964 7.4375 22.7816 7.21023L23.7532 7.48295C23.6509 7.8125 23.479 8.10227 23.2376 8.35227C22.9961 8.59943 22.6978 8.79261 22.3427 8.93182C21.9876 9.06818 21.5884 9.13636 21.1452 9.13636ZM25.3853 9V2.45455H26.3569V3.44318H26.4251C26.5444 3.11932 26.7603 2.85653 27.0728 2.65483C27.3853 2.45312 27.7376 2.35227 28.1296 2.35227C28.2035 2.35227 28.2958 2.35369 28.4066 2.35653C28.5174 2.35937 28.6012 2.36364 28.658 2.36932V3.39205C28.6239 3.38352 28.5458 3.37074 28.4237 3.35369C28.3043 3.33381 28.1779 3.32386 28.0444 3.32386C27.7262 3.32386 27.4421 3.39062 27.1921 3.52415C26.945 3.65483 26.7489 3.83665 26.604 4.0696C26.462 4.29972 26.391 4.5625 26.391 4.85795V9H25.3853ZM35.1513 9.15341C34.7365 9.15341 34.3601 9.07528 34.022 8.91903C33.6839 8.75994 33.4155 8.53125 33.2166 8.23295C33.0178 7.93182 32.9183 7.56818 32.9183 7.14205C32.9183 6.76705 32.9922 6.46307 33.1399 6.23011C33.2876 5.99432 33.4851 5.80966 33.7322 5.67614C33.9794 5.54261 34.2521 5.44318 34.5504 5.37784C34.8516 5.30966 35.1541 5.25568 35.4581 5.21591C35.8558 5.16477 36.1783 5.12642 36.4254 5.10085C36.6754 5.07244 36.8572 5.02557 36.9709 4.96023C37.0874 4.89489 37.1456 4.78125 37.1456 4.61932V4.58523C37.1456 4.16477 37.0305 3.83807 36.8004 3.60511C36.5732 3.37216 36.228 3.25568 35.7649 3.25568C35.2848 3.25568 34.9084 3.3608 34.6357 3.57102C34.3629 3.78125 34.1712 4.00568 34.0604 4.24432L33.1058 3.90341C33.2763 3.50568 33.5036 3.19602 33.7876 2.97443C34.0746 2.75 34.3871 2.59375 34.7251 2.50568C35.0661 2.41477 35.4013 2.36932 35.7308 2.36932C35.9411 2.36932 36.1825 2.39489 36.4553 2.44602C36.7308 2.49432 36.9964 2.59517 37.2521 2.74858C37.5107 2.90199 37.7251 3.13352 37.8956 3.44318C38.0661 3.75284 38.1513 4.16761 38.1513 4.6875V9H37.1456V8.11364H37.0945C37.0263 8.25568 36.9126 8.40767 36.7536 8.5696C36.5945 8.73153 36.3828 8.86932 36.1186 8.98295C35.8544 9.09659 35.532 9.15341 35.1513 9.15341ZM35.3047 8.25C35.7024 8.25 36.0376 8.17188 36.3104 8.01562C36.5859 7.85938 36.7933 7.65767 36.9325 7.41051C37.0746 7.16335 37.1456 6.90341 37.1456 6.63068V5.71023C37.103 5.76136 37.0092 5.80824 36.8643 5.85085C36.7223 5.89062 36.5575 5.92614 36.37 5.95739C36.1854 5.9858 36.005 6.01136 35.8288 6.03409C35.6555 6.05398 35.5149 6.07102 35.407 6.08523C35.1456 6.11932 34.9013 6.17472 34.674 6.25142C34.4496 6.32528 34.2678 6.4375 34.1286 6.58807C33.9922 6.7358 33.924 6.9375 33.924 7.19318C33.924 7.54261 34.0533 7.80682 34.3118 7.9858C34.5732 8.16193 34.9041 8.25 35.3047 8.25ZM39.9869 9V2.45455H40.9585V3.47727H41.0437C41.18 3.12784 41.4002 2.85653 41.7042 2.66335C42.0082 2.46733 42.3732 2.36932 42.7994 2.36932C43.2312 2.36932 43.5906 2.46733 43.8775 2.66335C44.1673 2.85653 44.3931 3.12784 44.555 3.47727H44.6232C44.7908 3.1392 45.0423 2.87074 45.3775 2.67188C45.7127 2.47017 46.1147 2.36932 46.5835 2.36932C47.1687 2.36932 47.6474 2.55256 48.0195 2.91903C48.3917 3.28267 48.5778 3.84943 48.5778 4.61932V9H47.5721V4.61932C47.5721 4.13636 47.44 3.79119 47.1758 3.58381C46.9116 3.37642 46.6005 3.27273 46.2425 3.27273C45.7823 3.27273 45.4258 3.41193 45.1729 3.69034C44.9201 3.96591 44.7937 4.31534 44.7937 4.73864V9H43.771V4.51705C43.771 4.14489 43.6502 3.84517 43.4087 3.6179C43.1673 3.38778 42.8562 3.27273 42.4755 3.27273C42.2141 3.27273 41.9698 3.34233 41.7425 3.48153C41.5181 3.62074 41.3363 3.81392 41.1971 4.06108C41.0607 4.3054 40.9925 4.58807 40.9925 4.90909V9H39.9869ZM53.0756 9.13636C52.4847 9.13636 51.9663 8.99574 51.5202 8.71449C51.0771 8.43324 50.7305 8.03977 50.4805 7.53409C50.2333 7.02841 50.1097 6.4375 50.1097 5.76136C50.1097 5.07955 50.2333 4.48437 50.4805 3.97585C50.7305 3.46733 51.0771 3.07244 51.5202 2.79119C51.9663 2.50994 52.4847 2.36932 53.0756 2.36932C53.6665 2.36932 54.1836 2.50994 54.6268 2.79119C55.0728 3.07244 55.4194 3.46733 55.6665 3.97585C55.9165 4.48437 56.0415 5.07955 56.0415 5.76136C56.0415 6.4375 55.9165 7.02841 55.6665 7.53409C55.4194 8.03977 55.0728 8.43324 54.6268 8.71449C54.1836 8.99574 53.6665 9.13636 53.0756 9.13636ZM53.0756 8.23295C53.5245 8.23295 53.8938 8.1179 54.1836 7.88778C54.4734 7.65767 54.6879 7.35511 54.8271 6.98011C54.9663 6.60511 55.0359 6.19886 55.0359 5.76136C55.0359 5.32386 54.9663 4.91619 54.8271 4.53835C54.6879 4.16051 54.4734 3.85511 54.1836 3.62216C53.8938 3.3892 53.5245 3.27273 53.0756 3.27273C52.6268 3.27273 52.2575 3.3892 51.9677 3.62216C51.6779 3.85511 51.4634 4.16051 51.3242 4.53835C51.185 4.91619 51.1154 5.32386 51.1154 5.76136C51.1154 6.19886 51.185 6.60511 51.3242 6.98011C51.4634 7.35511 51.6779 7.65767 51.9677 7.88778C52.2575 8.1179 52.6268 8.23295 53.0756 8.23295ZM61.7017 6.32386V2.45455H62.7074V9H61.7017V7.89205H61.6335C61.4801 8.22443 61.2415 8.5071 60.9176 8.74006C60.5938 8.97017 60.1847 9.08523 59.6903 9.08523C59.2812 9.08523 58.9176 8.99574 58.5994 8.81676C58.2813 8.63494 58.0313 8.36222 57.8494 7.99858C57.6676 7.6321 57.5767 7.17045 57.5767 6.61364V2.45455H58.5824V6.54545C58.5824 7.02273 58.7159 7.40341 58.983 7.6875C59.2528 7.97159 59.5966 8.11364 60.0142 8.11364C60.2642 8.11364 60.5185 8.04972 60.777 7.92188C61.0384 7.79403 61.2571 7.59801 61.4332 7.33381C61.6122 7.0696 61.7017 6.73295 61.7017 6.32386ZM65.555 5.0625V9H64.5494V2.45455H65.521V3.47727H65.6062C65.7596 3.14489 65.9925 2.87784 66.305 2.67614C66.6175 2.47159 67.021 2.36932 67.5153 2.36932C67.9585 2.36932 68.3462 2.46023 68.6786 2.64205C69.011 2.82102 69.2695 3.09375 69.4542 3.46023C69.6388 3.82386 69.7312 4.28409 69.7312 4.84091V9H68.7255V4.90909C68.7255 4.39489 68.592 3.99432 68.3249 3.70739C68.0579 3.41761 67.6914 3.27273 67.2255 3.27273C66.9045 3.27273 66.6175 3.34233 66.3647 3.48153C66.1147 3.62074 65.9173 3.82386 65.7724 4.09091C65.6275 4.35795 65.555 4.68182 65.555 5.0625ZM74.4155 2.45455V3.30682H71.0234V2.45455H74.4155ZM72.0121 0.886364H73.0178V7.125C73.0178 7.40909 73.0589 7.62216 73.1413 7.7642C73.2266 7.90341 73.3345 7.99716 73.4652 8.04545C73.5987 8.09091 73.7393 8.11364 73.8871 8.11364C73.9979 8.11364 74.0888 8.10795 74.1598 8.09659C74.2308 8.08239 74.2876 8.07102 74.3303 8.0625L74.5348 8.96591C74.4666 8.99148 74.3714 9.01705 74.2493 9.04261C74.1271 9.07102 73.9723 9.08523 73.7848 9.08523C73.5007 9.08523 73.2223 9.02415 72.9496 8.90199C72.6797 8.77983 72.4553 8.59375 72.2763 8.34375C72.1001 8.09375 72.0121 7.77841 72.0121 7.39773V0.886364Z" fill="#A9A7B6"/>
</svg>
