<svg width="64" height="28" viewBox="0 0 64 28" fill="none" xmlns="http://www.w3.org/2000/svg">
<rect width="64" height="28" rx="14" fill="#52BD94"/>
<path d="M22.1953 11.0291C22.1461 10.5921 21.9429 10.2536 21.5859 10.0135C21.2289 9.77036 20.7796 9.64879 20.2379 9.64879C19.8501 9.64879 19.5147 9.71035 19.2315 9.83345C18.9484 9.95348 18.7283 10.1197 18.5714 10.332C18.4175 10.5413 18.3406 10.7798 18.3406 11.0476C18.3406 11.2723 18.3929 11.4661 18.4975 11.6293C18.6052 11.7924 18.7453 11.9293 18.9176 12.0401C19.093 12.1478 19.2808 12.2386 19.4808 12.3125C19.6809 12.3833 19.8732 12.4418 20.0579 12.4879L20.9812 12.728C21.2828 12.8018 21.5921 12.9019 21.9091 13.0281C22.2261 13.1542 22.52 13.3204 22.7908 13.5266C23.0617 13.7328 23.2802 13.9883 23.4464 14.293C23.6156 14.5977 23.7003 14.9624 23.7003 15.3871C23.7003 15.9226 23.5618 16.3981 23.2848 16.8136C23.0109 17.229 22.6123 17.5568 22.0891 17.7969C21.569 18.0369 20.9396 18.157 20.201 18.157C19.4931 18.157 18.8807 18.0446 18.3636 17.82C17.8466 17.5953 17.4419 17.2768 17.1495 16.8643C16.8571 16.4489 16.6955 15.9564 16.6648 15.3871H18.0959C18.1236 15.7287 18.2344 16.0134 18.4283 16.2411C18.6252 16.4658 18.8761 16.6335 19.1808 16.7443C19.4885 16.852 19.8255 16.9059 20.1918 16.9059C20.5949 16.9059 20.9535 16.8428 21.2674 16.7166C21.5844 16.5874 21.8337 16.4089 22.0153 16.1811C22.1969 15.9503 22.2876 15.681 22.2876 15.3732C22.2876 15.0932 22.2076 14.8639 22.0476 14.6854C21.8906 14.5069 21.6767 14.3591 21.4059 14.2422C21.1381 14.1252 20.835 14.0221 20.4964 13.9329L19.3793 13.6282C18.6222 13.422 18.022 13.1188 17.5788 12.7188C17.1387 12.3187 16.9187 11.7893 16.9187 11.1307C16.9187 10.5859 17.0664 10.1104 17.3619 9.70419C17.6573 9.29794 18.0574 8.98248 18.5621 8.75781C19.0669 8.53007 19.6362 8.41619 20.2702 8.41619C20.9104 8.41619 21.4751 8.52853 21.9645 8.7532C22.4569 8.97786 22.8447 9.28717 23.1278 9.68111C23.411 10.072 23.5587 10.5213 23.571 11.0291H22.1953ZM28.3502 18.1431C27.6516 18.1431 27.0499 17.9938 26.5452 17.6953C26.0435 17.3937 25.6557 16.9705 25.3818 16.4258C25.111 15.878 24.9756 15.2363 24.9756 14.5007C24.9756 13.7744 25.111 13.1342 25.3818 12.5803C25.6557 12.0263 26.0374 11.5939 26.5267 11.283C27.0191 10.9722 27.5947 10.8168 28.2533 10.8168C28.6534 10.8168 29.0412 10.8829 29.4166 11.0153C29.7921 11.1476 30.1291 11.3554 30.4276 11.6385C30.7262 11.9216 30.9616 12.2894 31.134 12.7418C31.3063 13.1912 31.3925 13.7375 31.3925 14.3807V14.87H25.7558V13.8359H30.0399C30.0399 13.4728 29.966 13.1512 29.8183 12.8711C29.6705 12.5879 29.4628 12.3648 29.195 12.2017C28.9304 12.0386 28.6195 11.957 28.2625 11.957C27.8747 11.957 27.5362 12.0524 27.2469 12.2433C26.9607 12.431 26.7391 12.6772 26.5821 12.9819C26.4282 13.2835 26.3513 13.6113 26.3513 13.9652V14.7731C26.3513 15.247 26.4344 15.6502 26.6006 15.9826C26.7699 16.315 27.0053 16.5689 27.3069 16.7443C27.6085 16.9167 27.9609 17.0028 28.3641 17.0028C28.6257 17.0028 28.8642 16.9659 29.0796 16.892C29.2951 16.8151 29.4813 16.7012 29.6382 16.5504C29.7952 16.3996 29.9152 16.2134 29.9983 15.9918L31.3048 16.2273C31.2001 16.612 31.0124 16.949 30.7416 17.2383C30.4738 17.5245 30.1368 17.7476 29.7306 17.9077C29.3274 18.0646 28.8673 18.1431 28.3502 18.1431ZM34.3043 13.7898V18H32.924V10.9091H34.2489V12.0632H34.3366C34.4998 11.6877 34.7552 11.3861 35.103 11.1584C35.4538 10.9306 35.8955 10.8168 36.4279 10.8168C36.9111 10.8168 37.3343 10.9183 37.6974 11.1214C38.0606 11.3215 38.3422 11.62 38.5423 12.017C38.7423 12.4141 38.8423 12.9049 38.8423 13.4897V18H37.462V13.6559C37.462 13.1419 37.3281 12.7403 37.0604 12.451C36.7926 12.1586 36.4248 12.0124 35.957 12.0124C35.637 12.0124 35.3523 12.0817 35.103 12.2202C34.8568 12.3587 34.6613 12.5618 34.5167 12.8295C34.3751 13.0942 34.3043 13.4143 34.3043 13.7898ZM43.348 18.1385C42.7756 18.1385 42.2647 17.9923 41.8153 17.6999C41.3691 17.4045 41.0182 16.9844 40.7628 16.4396C40.5104 15.8918 40.3842 15.2347 40.3842 14.4684C40.3842 13.7021 40.512 13.0465 40.7674 12.5018C41.0259 11.957 41.3799 11.54 41.8292 11.2507C42.2785 10.9614 42.7879 10.8168 43.3572 10.8168C43.7973 10.8168 44.1513 10.8906 44.419 11.0384C44.6899 11.183 44.8991 11.3523 45.0469 11.5462C45.1977 11.7401 45.3146 11.9109 45.3977 12.0586H45.4808V8.54545H46.8612V18H45.5131V16.8967H45.3977C45.3146 17.0475 45.1946 17.2198 45.0376 17.4137C44.8838 17.6076 44.6714 17.7769 44.4006 17.9215C44.1297 18.0662 43.7789 18.1385 43.348 18.1385ZM43.6527 16.9613C44.0497 16.9613 44.3852 16.8567 44.6591 16.6474C44.9361 16.435 45.1454 16.1411 45.2869 15.7656C45.4316 15.3902 45.5039 14.9531 45.5039 14.4545C45.5039 13.9621 45.4331 13.5312 45.2915 13.1619C45.15 12.7926 44.9422 12.5049 44.6683 12.2987C44.3944 12.0924 44.0559 11.9893 43.6527 11.9893C43.2372 11.9893 42.891 12.0971 42.614 12.3125C42.337 12.5279 42.1277 12.8219 41.9862 13.1942C41.8477 13.5666 41.7784 13.9867 41.7784 14.4545C41.7784 14.9285 41.8492 15.3548 41.9908 15.7333C42.1323 16.1119 42.3416 16.4119 42.6186 16.6335C42.8987 16.852 43.2434 16.9613 43.6527 16.9613Z" fill="white"/>
</svg>
